<?xml version="1.0" encoding="UTF-8" standalone="no"?>
<svg
   xmlns:dc="http://purl.org/dc/elements/1.1/"
   xmlns:cc="http://creativecommons.org/ns#"
   xmlns:rdf="http://www.w3.org/1999/02/22-rdf-syntax-ns#"
   xmlns:svg="http://www.w3.org/2000/svg"
   xmlns="http://www.w3.org/2000/svg"
   xmlns:sodipodi="http://sodipodi.sourceforge.net/DTD/sodipodi-0.dtd"
   xmlns:inkscape="http://www.inkscape.org/namespaces/inkscape"
   style="fill-opacity:1; color-rendering:auto; color-interpolation:auto; text-rendering:auto; stroke:black; stroke-linecap:square; stroke-miterlimit:10; shape-rendering:auto; stroke-opacity:1; fill:black; stroke-dasharray:none; font-weight:normal; stroke-width:1; font-family:'Dialog'; font-style:normal; stroke-linejoin:miter; font-size:12; stroke-dashoffset:0; image-rendering:auto;"
   width="536"
   height="256"
   id="svg2"
   sodipodi:version="0.32"
   inkscape:version="0.46"
   sodipodi:docname="oracle-classes.svg"
   inkscape:output_extension="org.inkscape.output.svg.inkscape">
  <metadata
     id="metadata277">
    <rdf:RDF>
      <cc:Work
         rdf:about="">
        <dc:format>image/svg+xml</dc:format>
        <dc:type
           rdf:resource="http://purl.org/dc/dcmitype/StillImage" />
      </cc:Work>
    </rdf:RDF>
  </metadata>
  <sodipodi:namedview
     inkscape:window-height="722"
     inkscape:window-width="642"
     inkscape:pageshadow="2"
     inkscape:pageopacity="0.0"
     guidetolerance="10.0"
     gridtolerance="10.0"
     objecttolerance="10.0"
     borderopacity="1.0"
     bordercolor="#666666"
     pagecolor="#ffffff"
     id="base"
     showgrid="false"
     inkscape:zoom="1.0093284"
     inkscape:cx="268"
     inkscape:cy="128"
     inkscape:window-x="25"
     inkscape:window-y="0"
     inkscape:current-layer="svg2" />
<!--Generated by the Batik Graphics2D SVG Generator-->  <defs
     id="genericDefs">
    <inkscape:perspective
       sodipodi:type="inkscape:persp3d"
       inkscape:vp_x="0 : 128 : 1"
       inkscape:vp_y="0 : 1000 : 0"
       inkscape:vp_z="536 : 128 : 1"
       inkscape:persp3d-origin="268 : 85.333333 : 1"
       id="perspective279" />
    <defs
       id="defs1">
      <clipPath
         id="clipPath1"
         clipPathUnits="userSpaceOnUse">
        <path
           id="path9"
           d="M-3 -3 L157 -3 L157 137 L-3 137 L-3 -3 Z" />
      </clipPath>
      <clipPath
         id="clipPath2"
         clipPathUnits="userSpaceOnUse">
        <path
           id="path12"
           d="M0 0 L0 13 L150 13 L150 0 Z" />
      </clipPath>
      <clipPath
         id="clipPath3"
         clipPathUnits="userSpaceOnUse">
        <path
           id="path15"
           d="M-3 -3 L367 -3 L367 257 L-3 257 L-3 -3 Z" />
      </clipPath>
      <clipPath
         id="clipPath4"
         clipPathUnits="userSpaceOnUse">
        <path
           id="path18"
           d="M0 0 L0 13 L360 13 L360 0 Z" />
      </clipPath>
      <clipPath
         id="clipPath5"
         clipPathUnits="userSpaceOnUse">
        <path
           id="path21"
           d="M-3 -3 L117 -3 L117 77 L-3 77 L-3 -3 Z" />
      </clipPath>
      <clipPath
         id="clipPath6"
         clipPathUnits="userSpaceOnUse">
        <path
           id="path24"
           d="M0 0 L0 53 L110 53 L110 0 Z" />
      </clipPath>
      <clipPath
         id="clipPath7"
         clipPathUnits="userSpaceOnUse">
        <path
           id="path27"
           d="M0 0 L0 24 L110 24 L110 0 Z" />
      </clipPath>
      <clipPath
         id="clipPath8"
         clipPathUnits="userSpaceOnUse">
        <path
           id="path30"
           d="M-3 -3 L137 -3 L137 87 L-3 87 L-3 -3 Z" />
      </clipPath>
      <clipPath
         id="clipPath9"
         clipPathUnits="userSpaceOnUse">
        <path
           id="path33"
           d="M0 0 L0 75 L130 75 L130 0 Z" />
      </clipPath>
      <clipPath
         id="clipPath10"
         clipPathUnits="userSpaceOnUse">
        <path
           id="path36"
           d="M0 0 L0 12 L130 12 L130 0 Z" />
      </clipPath>
      <clipPath
         id="clipPath11"
         clipPathUnits="userSpaceOnUse">
        <path
           id="path39"
           d="M-3 -3 L107 -3 L107 67 L-3 67 L-3 -3 Z" />
      </clipPath>
      <clipPath
         id="clipPath12"
         clipPathUnits="userSpaceOnUse">
        <path
           id="path42"
           d="M0 0 L0 55 L100 55 L100 0 Z" />
      </clipPath>
      <clipPath
         id="clipPath13"
         clipPathUnits="userSpaceOnUse">
        <path
           id="path45"
           d="M0 0 L0 12 L100 12 L100 0 Z" />
      </clipPath>
      <clipPath
         id="clipPath14"
         clipPathUnits="userSpaceOnUse">
        <path
           id="path48"
           d="M-3 -3 L117 -3 L117 67 L-3 67 L-3 -3 Z" />
      </clipPath>
      <clipPath
         id="clipPath15"
         clipPathUnits="userSpaceOnUse">
        <path
           id="path51"
           d="M0 0 L0 55 L110 55 L110 0 Z" />
      </clipPath>
      <clipPath
         id="clipPath16"
         clipPathUnits="userSpaceOnUse">
        <path
           id="path54"
           d="M0 0 L0 12 L110 12 L110 0 Z" />
      </clipPath>
      <clipPath
         id="clipPath17"
         clipPathUnits="userSpaceOnUse">
        <path
           id="path57"
           d="M0 0 L0 43 L100 43 L100 0 Z" />
      </clipPath>
      <clipPath
         id="clipPath18"
         clipPathUnits="userSpaceOnUse">
        <path
           id="path60"
           d="M0 0 L0 24 L100 24 L100 0 Z" />
      </clipPath>
      <clipPath
         id="clipPath19"
         clipPathUnits="userSpaceOnUse">
        <path
           id="path63"
           d="M0 0 L173 0 L173 104 L0 104 L0 0 Z" />
      </clipPath>
      <clipPath
         id="clipPath20"
         clipPathUnits="userSpaceOnUse">
        <path
           id="path66"
           d="M0 0 L184 0 L184 164 L0 164 L0 0 Z" />
      </clipPath>
      <clipPath
         id="clipPath21"
         clipPathUnits="userSpaceOnUse">
        <path
           id="path69"
           d="M0 0 L104 0 L104 163 L0 163 L0 0 Z" />
      </clipPath>
      <clipPath
         id="clipPath22"
         clipPathUnits="userSpaceOnUse">
        <path
           id="path72"
           d="M0 0 L174 0 L174 174 L0 174 L0 0 Z" />
      </clipPath>
    </defs>
  </defs>
  <g
     id="g78"
     style="font-size:11px;fill:#ffffc0;stroke:#ffffc0;font-family:FreeSans"
     transform="translate(382,2)">
    <rect
       id="rect80"
       height="20"
       style="stroke:none"
       width="29"
       y="0"
       x="0" />
    <rect
       id="rect82"
       height="109"
       style="stroke:none"
       width="149"
       y="20"
       x="0" />
  </g>
  <g
     id="g84"
     style="font-size:11px;stroke-linecap:butt;stroke-linejoin:round;stroke-miterlimit:0;font-family:FreeSans"
     transform="translate(382,2)">
    <rect
       id="rect86"
       height="20"
       style="fill:none"
       width="29"
       y="0"
       x="0" />
    <rect
       id="rect88"
       height="109"
       style="fill:none"
       width="149"
       y="20"
       x="0" />
  </g>
  <g
     id="g90"
     transform="translate(382,22)"
     style="font-size:11px;font-family:FreeSans">
    <text
       id="text92"
       xml:space="preserve"
       style="stroke:none"
       y="11"
       x="50">repository</text>
  </g>
  <g
     id="g94"
     style="font-size:11px;fill:#c0ffff;stroke:#c0ffff;font-family:FreeSans"
     transform="translate(2,2)">
    <rect
       id="rect96"
       height="20"
       style="stroke:none"
       width="71"
       y="0"
       x="0" />
    <rect
       id="rect98"
       height="229"
       style="stroke:none"
       width="359"
       y="20"
       x="0" />
  </g>
  <g
     id="g100"
     style="font-size:11px;stroke-linecap:butt;stroke-linejoin:round;stroke-miterlimit:0;font-family:FreeSans"
     transform="translate(2,2)">
    <rect
       id="rect102"
       height="20"
       style="fill:none"
       width="71"
       y="0"
       x="0" />
    <rect
       id="rect104"
       height="229"
       style="fill:none"
       width="359"
       y="20"
       x="0" />
  </g>
  <g
     id="g106"
     transform="translate(2,22)"
     style="font-size:11px;font-family:FreeSans">
    <text
       id="text108"
       xml:space="preserve"
       style="stroke:none"
       y="11"
       x="165">oracle</text>
  </g>
  <g
     id="g110"
     style="font-size:10px;font-weight:bold;fill:#ffffff;stroke:#ffffff;font-family:FreeSans"
     transform="translate(222,42)">
    <rect
       id="rect112"
       height="70"
       style="stroke:none"
       width="110"
       y="0"
       x="0" />
  </g>
  <g
     id="g114"
     style="font-size:10px;font-weight:bold;stroke-linecap:butt;stroke-linejoin:round;stroke-miterlimit:0;font-family:FreeSans"
     transform="translate(222,42)">
    <rect
       id="rect116"
       height="70"
       style="fill:none"
       width="110"
       y="0"
       x="0" />
    <line
       id="line118"
       y2="24"
       style="fill:none"
       y1="24"
       x2="110"
       x1="0" />
  </g>
  <g
     id="g120"
     transform="translate(222,66)"
     style="font-size:10px;font-family:FreeSans">
    <text
       id="text122"
       xml:space="preserve"
       style="stroke:none"
       y="11"
       x="2">-name</text>
    <line
       id="line124"
       y2="15"
       style="fill:none;stroke-linecap:butt;stroke-linejoin:bevel;stroke-miterlimit:0"
       y1="15"
       x2="110"
       x1="0" />
    <text
       id="text126"
       xml:space="preserve"
       style="stroke:none"
       y="26"
       x="2">+processConfig()</text>
    <text
       id="text128"
       xml:space="preserve"
       style="stroke:none"
       y="37"
       x="2">+getName()</text>
  </g>
  <g
     id="g130"
     transform="translate(222,42)"
     style="font-size:10px;font-family:FreeSans">
    <text
       id="text132"
       xml:space="preserve"
       style="stroke:none"
       y="10"
       x="22">&lt;&lt;Interface&gt;&gt;</text>
    <text
       id="text134"
       xml:space="preserve"
       style="font-weight:bold;stroke:none"
       y="22"
       x="12">ConfiguredObject</text>
  </g>
  <g
     id="g136"
     style="font-size:10px;font-weight:bold;fill:#ffffff;stroke:#ffffff;font-family:FreeSans"
     transform="translate(22,42)">
    <rect
       id="rect138"
       height="80"
       style="stroke:none"
       width="130"
       y="0"
       x="0" />
  </g>
  <g
     id="g140"
     style="font-size:10px;font-weight:bold;stroke-linecap:butt;stroke-linejoin:round;stroke-miterlimit:0;font-family:FreeSans"
     transform="translate(22,42)">
    <rect
       id="rect142"
       height="80"
       style="fill:none"
       width="130"
       y="0"
       x="0" />
    <line
       id="line144"
       y2="12"
       style="fill:none"
       y1="12"
       x2="130"
       x1="0" />
  </g>
  <g
     id="g146"
     transform="translate(22,54)"
     style="font-size:10px;font-family:FreeSans">
    <text
       id="text148"
       xml:space="preserve"
       style="stroke:none"
       y="11"
       x="2">-nameMap</text>
    <line
       id="line150"
       y2="15"
       style="fill:none;stroke-linecap:butt;stroke-linejoin:bevel;stroke-miterlimit:0"
       y1="15"
       x2="130"
       x1="0" />
    <text
       id="text152"
       xml:space="preserve"
       style="stroke:none"
       y="26"
       x="2">+configure()</text>
    <text
       id="text154"
       xml:space="preserve"
       style="stroke:none"
       y="37"
       x="2">+startOfGame()</text>
    <text
       id="text156"
       xml:space="preserve"
       style="stroke:none"
       y="48"
       x="2">+createConfiguredObject()</text>
    <text
       id="text158"
       xml:space="preserve"
       style="stroke:none"
       y="59"
       x="2">+findConfiguredObject()</text>
  </g>
  <g
     id="g160"
     style="font-size:10px;font-weight:bold;font-family:FreeSans"
     transform="translate(22,42)">
    <text
       id="text162"
       xml:space="preserve"
       style="stroke:none"
       y="10"
       x="48">Oracle</text>
  </g>
  <g
     id="g164"
     style="font-size:10px;font-weight:bold;fill:#ffffff;stroke:#ffffff;font-family:FreeSans"
     transform="translate(42,172)">
    <rect
       id="rect166"
       height="60"
       style="stroke:none"
       width="100"
       y="0"
       x="0" />
  </g>
  <g
     id="g168"
     style="font-size:10px;font-weight:bold;stroke-linecap:butt;stroke-linejoin:round;stroke-miterlimit:0;font-family:FreeSans"
     transform="translate(42,172)">
    <rect
       id="rect170"
       height="60"
       style="fill:none"
       width="100"
       y="0"
       x="0" />
    <line
       id="line172"
       y2="12"
       style="fill:none"
       y1="12"
       x2="100"
       x1="0" />
  </g>
  <g
     id="g174"
     transform="translate(42,184)"
     style="font-size:10px;font-family:FreeSans">
    <text
       id="text176"
       xml:space="preserve"
       style="stroke:none"
       y="11"
       x="2">+processConfig()</text>
    <text
       id="text178"
       xml:space="preserve"
       style="stroke:none"
       y="22"
       x="2">+select()</text>
    <text
       id="text180"
       xml:space="preserve"
       style="stroke:none"
       y="33"
       x="2">+selectName()</text>
  </g>
  <g
     id="g182"
     style="font-size:10px;font-style:italic;font-weight:bold;font-family:FreeSans"
     transform="translate(42,172)">
    <text
       id="text184"
       xml:space="preserve"
       style="stroke:none"
       y="10"
       x="9">AbstractSelector</text>
  </g>
  <g
     id="g186"
     style="font-size:10px;font-weight:bold;fill:#ffffff;stroke:#ffffff;font-family:FreeSans"
     transform="translate(222,172)">
    <rect
       id="rect188"
       height="60"
       style="stroke:none"
       width="110"
       y="0"
       x="0" />
  </g>
  <g
     id="g190"
     style="font-size:10px;font-weight:bold;stroke-linecap:butt;stroke-linejoin:round;stroke-miterlimit:0;font-family:FreeSans"
     transform="translate(222,172)">
    <rect
       id="rect192"
       height="60"
       style="fill:none"
       width="110"
       y="0"
       x="0" />
    <line
       id="line194"
       y2="12"
       style="fill:none"
       y1="12"
       x2="110"
       x1="0" />
  </g>
  <g
     id="g196"
     transform="translate(222,184)"
     style="font-size:10px;font-family:FreeSans">
    <text
       id="text198"
       xml:space="preserve"
       style="stroke:none"
       y="11"
       x="2">+processConfig()</text>
    <text
       id="text200"
       xml:space="preserve"
       style="stroke:none"
       y="22"
       x="2">+evaluate()</text>
    <text
       id="text202"
       xml:space="preserve"
       style="stroke:none"
       y="33"
       x="2">+getName()</text>
  </g>
  <g
     id="g204"
     style="font-size:10px;font-style:italic;font-weight:bold;font-family:FreeSans"
     transform="translate(222,172)">
    <text
       id="text206"
       xml:space="preserve"
       style="stroke:none"
       y="10"
       x="11">AbstractEvaluator</text>
  </g>
  <g
     id="g208"
     style="font-size:10px;font-weight:bold;fill:#ffffff;stroke:#ffffff;font-family:FreeSans"
     transform="translate(402,42)">
    <rect
       id="rect210"
       height="60"
       style="stroke:none"
       width="100"
       y="0"
       x="0" />
  </g>
  <g
     id="g212"
     style="font-size:10px;font-weight:bold;stroke-linecap:butt;stroke-linejoin:round;stroke-miterlimit:0;font-family:FreeSans"
     transform="translate(402,42)">
    <rect
       id="rect214"
       height="60"
       style="fill:none"
       width="100"
       y="0"
       x="0" />
    <line
       id="line216"
       y2="24"
       style="fill:none"
       y1="24"
       x2="100"
       x1="0" />
  </g>
  <g
     id="g218"
     transform="translate(402,66)"
     style="font-size:10px;font-family:FreeSans">
    <text
       id="text220"
       xml:space="preserve"
       style="stroke:none"
       y="11"
       x="2">+evaluate(evaluable)</text>
    <text
       id="text222"
       xml:space="preserve"
       style="stroke:none"
       y="22"
       x="2">+getName()</text>
  </g>
  <g
     id="g224"
     transform="translate(402,42)"
     style="font-size:10px;font-family:FreeSans">
    <text
       id="text226"
       xml:space="preserve"
       style="stroke:none"
       y="10"
       x="17">&lt;&lt;Interface&gt;&gt;</text>
    <text
       id="text228"
       xml:space="preserve"
       style="font-weight:bold;stroke:none"
       y="22"
       x="26">Evaluator</text>
  </g>
  <g
     id="g230"
     style="font-size:10px;stroke-linecap:butt;stroke-linejoin:round;font-family:sans-serif"
     transform="translate(102,12)">
    <line
       id="line232"
       y2="50"
       style="fill:none"
       y1="50"
       x2="119"
       x1="74" />
    <polygon
       id="polygon234"
       points="50,50 62,56 74,50 62,44 50,50 "
       style="fill:none" />
    <line
       id="line236"
       y2="44"
       style="fill:none"
       y1="50"
       x2="107"
       x1="119" />
    <line
       id="line238"
       y2="56"
       style="fill:none"
       y1="50"
       x2="107"
       x1="119" />
  </g>
  <g
     id="g240"
     style="font-size:10px;stroke-linecap:butt;stroke-linejoin:round;stroke-dasharray:5;stroke-dashoffset:1;font-family:sans-serif"
     transform="translate(92,62)">
    <line
       id="line242"
       y2="110"
       style="fill:none"
       y1="50"
       x2="50"
       x1="130" />
  </g>
  <g
     id="g244"
     style="font-size:10px;fill:#7acff5;stroke:#7acff5;stroke-linecap:butt;stroke-linejoin:round;font-family:sans-serif"
     transform="translate(92,62)">
    <polygon
       id="polygon246"
       points="130,50 117,51 124,61 130,50 "
       style="stroke:none" />
    <polygon
       id="polygon248"
       points="130,50 117,51 124,61 130,50 "
       style="fill:none;stroke:#000000" />
  </g>
  <g
     id="g250"
     style="font-size:10px;stroke-linecap:butt;stroke-linejoin:round;stroke-dasharray:5;stroke-dashoffset:1;font-family:sans-serif"
     transform="translate(252,62)">
    <line
       id="line252"
       y2="109"
       style="fill:none"
       y1="50"
       x2="50"
       x1="50" />
  </g>
  <g
     id="g254"
     style="font-size:10px;fill:#7acff5;stroke:#7acff5;stroke-linecap:butt;stroke-linejoin:round;font-family:sans-serif"
     transform="translate(252,62)">
    <polygon
       id="polygon256"
       points="50,50 44,62 56,62 50,50 "
       style="stroke:none" />
    <polygon
       id="polygon258"
       points="50,50 44,62 56,62 50,50 "
       style="fill:none;stroke:#000000" />
  </g>
  <g
     id="g260"
     style="font-size:11px;stroke-linecap:butt;stroke-linejoin:round;stroke-dasharray:5;stroke-dashoffset:1;font-family:sans-serif"
     transform="translate(282,52)">
    <line
       id="line262"
       y2="120"
       style="fill:none"
       y1="50"
       x2="50"
       x1="120" />
  </g>
  <g
     id="g264"
     style="font-size:11px;fill:#7acff5;stroke:#7acff5;stroke-linecap:butt;stroke-linejoin:round;font-family:sans-serif"
     transform="translate(282,52)">
    <polygon
       id="polygon266"
       points="120,50 107,53 116,62 120,50 "
       style="stroke:none" />
    <polygon
       id="polygon268"
       points="120,50 107,53 116,62 120,50 "
       style="fill:none;stroke:#000000" />
  </g>
</svg>
